<svg xmlns="http://www.w3.org/2000/svg" viewBox="0 0 423.73 380.82"><defs><style>.cls-1{fill:#3d3d3d;}</style></defs><g id="Layer_2" data-name="Layer 2"><g id="Layer_1-2" data-name="Layer 1"><path class="cls-1" d="M212.18,307.23c2.21.43,4.42.78,6.63,1.09l-3.09-64.16-3.19-1c-1.75-.77-3.74-1.55-5.84-2.54l-3.18-1.76-.76-.43c1.64,20,3.7,45.41,5.42,67.91C209.5,306.66,210.83,307,212.18,307.23Z"/><path class="cls-1" d="M235.93,133.38a14.28,14.28,0,0,0-1.72.46l-.15,0a9.21,9.21,0,0,0-1.25.53,5.81,5.81,0,0,0-1.94,1.45,4.14,4.14,0,0,0-.42.64,3.85,3.85,0,0,0-.4,1,6,6,0,0,0-.11.7c0,.18,0,.36,0,.54a11.32,11.32,0,0,0,.34,2.19,6.42,6.42,0,0,1,.25,2.26,3.51,3.51,0,0,1-1.44,2.17,8.85,8.85,0,0,0-1.76,2,8.32,8.32,0,0,0-1.12,2.63,15.31,15.31,0,0,0-10.28,9.49,15.15,15.15,0,0,0-.88,4.35,15.8,15.8,0,0,0,.11,2.82l3,62.22h0l.14,3h0l.61,12.58h0l0,.59h0L222,308.74h0l.74,15.41h0l.61,12.64h0l.13,2.87h0l1.15,23.85a2.64,2.64,0,0,0,.08.49,3.42,3.42,0,0,0,1.37,2,3.34,3.34,0,0,0,.55.33,4.29,4.29,0,0,0,1.25.42l40.48,6.75h0l43.45,7.25.28,0a4.63,4.63,0,0,0,1.34-.07l27.2-5.8a3.51,3.51,0,0,0,2.76-2.4l51.23-190.08a3.43,3.43,0,0,0,.09-.44c.09-.59.18-1.16.28-1.73s.23-1.3.34-1.94.17-1,.25-1.44c0-.18.06-.37.1-.56.17-1,.31-2,.39-2.87a11,11,0,0,0-.2-3.87,5.61,5.61,0,0,0-1-2.06,5.33,5.33,0,0,0-2.43-1.74,6.79,6.79,0,0,0,.16-1.31s0-.07,0-.1a8.63,8.63,0,0,0-1.47-4.56,24.13,24.13,0,0,0-1.45-2c-.25-.33-.51-.65-.76-1l-.93-1.16c-.42-.55-.82-1.14-1.25-1.76s-1.05-1.54-1.67-2.3a13.51,13.51,0,0,0-2.13-2.15,10.14,10.14,0,0,0,.69-1.49,10.85,10.85,0,0,0,.57-4.86,12,12,0,0,0-1.36-4.18c-.22-.42-.47-.85-.74-1.27A20.52,20.52,0,0,0,380,135l.47-.3.37-.23c.27-.17.56-.35.86-.56a14.87,14.87,0,0,0,1.85-1.47,5.65,5.65,0,0,0,2.1-4.26.19.19,0,0,1,0-.08c0-.18,0-.37-.07-.57h0a4.86,4.86,0,0,0-2.53-3.29,13,13,0,0,0-5.76-1.37l-.28,0-1.18,0h-1.72l-1.37.09-.25,0-.43,0v0a10.13,10.13,0,0,0-1.08.18,2,2,0,0,1-.77-.06c-.18,0-.37-.08-.57-.13l-.1,0-.61-.18-.07,0-.56-.18h0l-.73-.23-.26-.08-.56-.15-.31-.08-.55-.1-.29,0c-.22,0-.43,0-.64-.05h-.32a4.55,4.55,0,0,0-.53,0l-.21,0h0a4,4,0,0,0-1.23.47l-.05,0a16.88,16.88,0,0,0-2.07-1.59,30.09,30.09,0,0,0-7-3.2l-1.25-.36c-.42-.11-.83-.21-1.24-.29-.62-.14-1.21-.23-1.77-.3l-.48-.05c-.42,0-.83-.06-1.21-.07h-.39c-.47,0-.92,0-1.33.08l-.17,0a9.75,9.75,0,0,0-1,.19l-.35.09c-.26.07-.5.15-.74.24l-.29.12a7.19,7.19,0,0,0-.88.43,5.75,5.75,0,0,0,.14-3c-.65-2.91-3.07-4.93-6.82-5.68l-.21,0-.93-.18-.27,0c-.35-.06-.71-.11-1.08-.14h0c-.29,0-.58,0-.88,0l-.26,0h-.29a8.68,8.68,0,0,0-1.22.16h0a9.21,9.21,0,0,0-3.94-4.07,11.09,11.09,0,0,0-1.92-.82l-.2-.06h0l-.67-.22-.2-.06c-.26-.07-.51-.15-.78-.21h0l-.82-.16-.22,0a5.69,5.69,0,0,0-.83-.06h-.07l-.48,0h-.23a6,6,0,0,0-.72.13,8,8,0,0,0-1.35.46,10.29,10.29,0,0,0-2.32,1.38,15.27,15.27,0,0,0-4.53-.85h-.11l-.28,0-1.18,0h-1.73c-.45,0-.9,0-1.36.1l-.27,0a13.71,13.71,0,0,0-1.49.26h-.2a3.25,3.25,0,0,1-.49-.05l-.08,0c-.18,0-.38-.08-.58-.14l-.11,0-.61-.18-.08,0-.56-.18h0l-.75-.23-.25-.08-.58-.16-.3-.07-.56-.11-.3-.05c-.21,0-.43,0-.64,0h-.33a4.36,4.36,0,0,0-.52,0l-.21,0a3.81,3.81,0,0,0-.45.13l-.2.06a3.73,3.73,0,0,0-.6.3h0a4.69,4.69,0,0,0-.92.73,6.19,6.19,0,0,0-1.27,1.91,11,11,0,0,0-.84,3.43c0,.39-.06.78-.07,1.15s0,.75,0,1.1a7.54,7.54,0,0,0-1.54.19c-.33.08-.66.2-1,.31-.16.06-.32.09-.49.15a9.12,9.12,0,0,0-2.21-4.06l-.11-.13-.1-.08a10.47,10.47,0,0,0-3.73-2.33h0l-.5-.2-.2-.06a15.26,15.26,0,0,0-2.53-.66l-.22,0a7.55,7.55,0,0,0-.83,0h-.07c-.16,0-.31,0-.47,0H279q-.36,0-.72.12c-.21,0-.42.14-.64.21a9.88,9.88,0,0,0-1.83.82,12.85,12.85,0,0,0-1.16.82,12.29,12.29,0,0,0-1.07,1c-.16-.15-.36-.29-.54-.43a12.09,12.09,0,0,0-5.46-2.46l-.17,0-.09,0-.75-.14-.24-.05-.62-.1-.28,0c-.27,0-.55-.08-.83-.1h-.06c-.3,0-.6,0-.91,0h-.27q-.36,0-.72,0l-.29,0a8.37,8.37,0,0,0-1,.17h0a14.86,14.86,0,0,0-6.38,3.47,11.19,11.19,0,0,0-1.06,1.13l-.06.07a5.79,5.79,0,0,0-.67-.31l-.2-.07-.5-.16-.22-.05a4.2,4.2,0,0,0-.62-.07h-.12a3.44,3.44,0,0,0-.77.09c-4.53,1-6,7.81-6.13,9.57,0,.12,0,.23,0,.35a3.55,3.55,0,0,0,.08.73c0,.08,0,.17,0,.26a14,14,0,0,0-4.67,2.39,12.49,12.49,0,0,0-4.26,6.65,7.55,7.55,0,0,0-.18,3.21h0A7,7,0,0,0,235.93,133.38ZM240.76,144c-.09,2.1.07,6.22,2.91,4.42,2.54-1.61.34-3.59-1.35-4.7,2,.09,5.33-.17,4-3.14h0c3.33-.18,5.95.34,7.84,1.56a8.85,8.85,0,0,1,.76.57,11.4,11.4,0,0,0,1.7,7.42,17.81,17.81,0,0,1-.8,1.79c-.38,0-.77,0-1.14,0a7.51,7.51,0,0,0,.36-.76,5.72,5.72,0,0,0,.38-2.77,6,6,0,0,0-.66-2.12,7.2,7.2,0,0,0-.93-1.33,6.69,6.69,0,0,0-.74-.69l-.28-.23s0,.13,0,.35,0,.55.08.93a8.75,8.75,0,0,1,0,1.35,5.1,5.1,0,0,1-.32,1.47,3.75,3.75,0,0,1-.8,1.26,5.86,5.86,0,0,1-1.31,1,13.12,13.12,0,0,1-1.8.84,20.68,20.68,0,0,1-2.14.65c-.37.1-.77.19-1.12.26l-.61.12-.16,0h-.11l-.24,0a8.37,8.37,0,0,1-1.92.1,9,9,0,0,1-1.85-.34,10.58,10.58,0,0,1-1.63-.68l-.28-.14a17.6,17.6,0,0,1-2.45-1.62c-.32-.25-.59-.45-.75-.6l-.27-.23a2.88,2.88,0,0,0,0,.35,7.56,7.56,0,0,0,.16.82,18.44,18.44,0,0,0-2.89-.55c-.46,0-.91-.06-1.36-.07a5.25,5.25,0,0,1,.77-.8c3.7-3.07,3-6.38,2.5-8.37-.42-1.83-.42-1.83,1.21-2.38,3.45-1.17,4.92-.12,6.63,1.09.44.31.89.63,1.38.91a12.09,12.09,0,0,0-2.28,3.13c-1.39-1.13-5-3.65-5.68-.15C235,146.07,238.79,144.81,240.76,144Zm72.81-27.23,3.68.6c.75.12,1.55.27,2.38.42s1.67.36,2.48.6a7.71,7.71,0,0,1,2.09.91,1.41,1.41,0,0,1,.45.44.62.62,0,0,1,.06.29v0l0,.18a3,3,0,0,1,0,.34c0,.14,0,.3-.07.48a2.94,2.94,0,0,1-.25.79,2.06,2.06,0,0,1-.44.63,4.79,4.79,0,0,1-.81.66c-.65.45-1.45.89-2.2,1.33s-1.5.88-2.15,1.32a19.78,19.78,0,0,0-3,2.41c-.33.32-.58.6-.74.79a3.33,3.33,0,0,0-.25.29l.38-.07,1.05-.23,3.63-.85,1.52-.38a11.33,11.33,0,0,0-.27,1.26,30.44,30.44,0,0,0-4.81.87l-1.18.27a23.3,23.3,0,0,0-6.57,2.34l-.71-.69c-.35-.34-.71-.68-1.06-1-.5-.49-1-1-1.47-1.56a19.2,19.2,0,0,0-5.6-4.68,10.56,10.56,0,0,1,3.51-5.42,20.21,20.21,0,0,1,8.29-4.45,11.52,11.52,0,0,1,3.8-.16c.86.09,1.73.24,2.59.4l-.61.09a20.4,20.4,0,0,0-5.11,1.53Zm7.94,157.81c-2,13.74-22.89,22.35-47.11,19.9-.72-.07-1.43-.15-2.15-.24C247.1,291,227.77,277,229.11,262.79c1.32-14.08,22.25-23.2,47.21-20.68.73.07,1.47.16,2.21.25C304.42,245.67,323.65,260.18,321.51,274.55Zm-76.72,90.66,14.38,3,0,.53-14.37-2.4Zm0-1.48.4-73c.47.26,1,.51,1.45.76,0,4.49,0,8.9-.08,13.17,0,5.47,0,10.72,0,15.67s0,9.56,0,13.81c0,8.44.14,15.41.22,20.26S247,362,247,362s.14-2.73.38-7.53.52-11.78.81-20.21c.15-4.24.31-8.86.45-13.78s.3-10.19.42-15.65c.09-3.91.19-7.93.28-12,.45.2.89.41,1.34.6a75.67,75.67,0,0,0,10.79,3.71l.42.11-2.57,68Zm17.56,5.11L272.65,371l-10.3-1.72Zm.13-3.21L265.18,298l1.23.25c-.11,2.84-.21,5.63-.32,8.37-.21,5.45-.37,10.69-.53,15.63s-.29,9.52-.4,13.76c-.23,8.42-.36,15.37-.43,20.2s-.09,7.54-.09,7.54.23-2.72.62-7.5.91-11.74,1.46-20.13c.29-4.23.6-8.83.89-13.73s.64-10.16.93-15.6c.14-2.64.3-5.33.45-8.05l1.09.18c1,.16,1.91.28,2.86.42l1.51.17c.49.05,1,.11,1.47.15,1,.07,2,.18,2.94.22s2,.12,2.93.13h0L277,367.19Zm-3.15-223.32c.72-2.51,3-4,8-5.11l1.22-.29a18.15,18.15,0,0,1,5.93-.73,8.64,8.64,0,0,1,1.64.32,6.85,6.85,0,0,1,1,.42,20.06,20.06,0,0,0,4.55,4.57c.41.57.84,1.15,1.3,1.71s.69.82,1,1.22c2,2.34,3.2,3.87,3.11,5.49a6.73,6.73,0,0,0-.27-.76,9,9,0,0,0-.84-1.61,14.87,14.87,0,0,0-2-2.46,20.31,20.31,0,0,0-2-1.81,18.74,18.74,0,0,0-4.77-2.82s.26.49.73,1.32,1.13,1.93,1.93,3.29c.39.66.8,1.37,1.21,2.11a21.27,21.27,0,0,1,1.09,2.26,9.88,9.88,0,0,1,.36,1.09,3.48,3.48,0,0,1,.11.87.54.54,0,0,1-.09.35s-.05,0-.06.07-.06,0-.08.06l0,0-.07,0a11.34,11.34,0,0,1-1.09.58c-.43.19-.76.37-1.18.55a25.68,25.68,0,0,1-2.47.92,18.6,18.6,0,0,1-2.38.57,14.32,14.32,0,0,1-2.19.21,10.81,10.81,0,0,1-1.88-.18,5.84,5.84,0,0,1-.8-.2,5.37,5.37,0,0,1-.68-.25l-.55-.25-.4-.23-.35-.2s0,.13.14.37l.19.45c.09.17.21.36.35.57a3.83,3.83,0,0,0,.53.66,5.11,5.11,0,0,0,.75.7l.41.3-.49-.13c-2.34-.7-4.28-2.36-6.16-4l-.34-.29C259.93,148.82,258.43,145.52,259.34,142.31Zm20-11.23c.24,1.35,2.2,1.77,3.67,1.88a7,7,0,0,0-2.57,2A5.12,5.12,0,0,1,279.36,131.08Zm15.13,27.17.54.29c.25.13.5.29.74.44l.55.33a16.55,16.55,0,0,0-2.43,1.79c-.2-.26-.4-.51-.61-.75a5.94,5.94,0,0,0,.87-2.28Zm.62-8.4a4.75,4.75,0,0,1,2.29-1.5,1.9,1.9,0,0,1,.54,0,8.4,8.4,0,0,1,1.58.41l.16,0a3.9,3.9,0,0,1,2.91,2.83c.26,1-.08,2-1.21,3.33l-.32.39c-.56.69-1,1.28-1.58,1.4s-.93-.22-1.76-.74c-.31-.19-.62-.39-.93-.56l-.6-.31c-1.25-.66-1.71-.95-1.88-1.64A3.81,3.81,0,0,1,295.11,149.85Zm-9,90.82q-3.54-.76-7.22-1.24l-2.31-.26c-1.6-.16-3.2-.28-4.78-.35.05-1.12.09-2.25.14-3.37.25-5.95.43-11.75.62-17.28s.36-10.87.5-15.79c.29-9.91.47-18.27.58-24.16s.14-9.34.14-9.34-.26,3.4-.73,9.3-1,14.2-1.68,24.09c-.32,4.91-.66,10.19-1,15.75s-.69,11.31-1,17.26l-.18,3.47h-1.67l3-75.35a12.21,12.21,0,0,1,11.11-4.82,12.6,12.6,0,0,1,9.89,6.58Zm-19.17-77.94-2.88,76.11a68.59,68.59,0,0,0-14,2.1c0-2.59,0-5.17.05-7.71.06-6,.06-11.79.07-17.34s0-10.9,0-15.83c0-9.95-.12-18.32-.2-24.23s-.16-9.37-.16-9.37-.15,3.41-.43,9.34-.58,14.24-.9,24.17c-.16,4.93-.33,10.23-.47,15.81s-.32,11.35-.44,17.32q-.09,4.26-.19,8.61c-.65.21-1.29.43-1.92.65l.45-81.47a12,12,0,0,1,11-4.81A12.8,12.8,0,0,1,266.94,162.73Zm26.66,79.92c.11-1.66.22-3.32.34-5,.43-5.94.78-11.73,1.14-17.24s.67-10.84,1-15.74c.59-9.89,1-18.22,1.29-24.1s.42-9.32.42-9.32-.37,3.38-1,9.27-1.46,14.15-2.39,24c-.46,4.89-1,10.16-1.44,15.7s-1,11.27-1.51,17.21c-.12,1.45-.24,2.92-.37,4.39l-1.5-.4L295.12,166a12.56,12.56,0,0,1,21.18,1.92l-8.8,80.86A68.05,68.05,0,0,0,293.6,242.65ZM304.7,147l.08,0,0,0Zm3.33,6.23,0,0-.07.17-.07.11a1.33,1.33,0,0,1-.2.22,3,3,0,0,1-.75.47,6.54,6.54,0,0,1-1.06.38,6,6,0,0,0,.29-3.83c0-.13-.08-.24-.11-.36a.41.41,0,0,0,.11.07,6.88,6.88,0,0,1,1.7,1.58,1.39,1.39,0,0,1,.27.67A.9.9,0,0,1,308,153.26Zm-6.6-22.58a16.47,16.47,0,0,0-4-1.55,19.53,19.53,0,0,0-3.79-.54,11.2,11.2,0,0,0-1.46,0l1.2.79c.76.49,1.84,1.17,3.06,2,.61.4,1.25.85,1.89,1.33a18.38,18.38,0,0,1,1.84,1.55,7.1,7.1,0,0,1,1.31,1.69,3.33,3.33,0,0,1,.26.77,1.1,1.1,0,0,1,0,.18v.87a6.17,6.17,0,0,1-.3,2.06,2.92,2.92,0,0,1-.89,1.32,4.21,4.21,0,0,1-1.69.7,9.57,9.57,0,0,1-2.07.14,24.34,24.34,0,0,1-3.49-.4l-1-.17-.37-.06.26.27c.18.17.43.42.79.72a12.72,12.72,0,0,0,1.84,1.27,21.63,21.63,0,0,1-3.19-.69,23.1,23.1,0,0,1-6.71-3.8l-.36-.26c-.44-.33-.89-.68-1.34-1,1-.86,1-3.5,1-4.74,1.68.31,5.84.78,4.8-2.57-1-3.13-3.56-.22-4.8,1.44-.57-1.13-1.56-2.88-2.6-3.4a19.25,19.25,0,0,1,5.57-1.32l1.21-.15c2.66-.36,5.17-.69,8,.17A11.12,11.12,0,0,1,301.43,130.68Zm-25-17.92-.6,0a4.86,4.86,0,0,1,.77-1.23,5.74,5.74,0,0,1,2.81-1.89,2,2,0,0,1,.66,0,10.46,10.46,0,0,1,1.95.51l.2.06a4.92,4.92,0,0,1,3.62,3.56,3.34,3.34,0,0,1,.1,1C283.38,112.21,280,112.48,276.43,112.76ZM264,112.15a8.7,8.7,0,0,0-2.62,1,15.14,15.14,0,0,0-2.88-.63,2.32,2.32,0,0,1-.77-.35,6.09,6.09,0,0,1,.44-.44,10.57,10.57,0,0,1,4.4-2.43,5.83,5.83,0,0,1,1.92-.07,19.21,19.21,0,0,1,2.08.35l.27.05c2.11.42,3.51,1.22,4.18,2.35A14.37,14.37,0,0,0,264,112.15ZM251.7,113.5a12.75,12.75,0,0,1,1.73,1.18,10.68,10.68,0,0,0,4.43,2.35l-.41.7c-.25.42-.5.85-.78,1.29s-.44.72-.63,1.08c-.31-.13-.62-.24-.94-.34a16.84,16.84,0,0,0-5.53-.64,3.86,3.86,0,0,1-.39-.3C249.43,117,250.62,114,251.7,113.5Zm7.87,17.68c-1.73-3.06-1.48-6.36.73-9.81.31-.48.59-1,.87-1.42,1.22-2.09,1.95-3.2,3.84-3.62a9.48,9.48,0,0,1,6.18.22l.35.12a11.46,11.46,0,0,0-1.22.7,6.86,6.86,0,0,0-1,.77l1.25.13c.78.09,1.87.18,3.14.28.63,0,1.32.11,2,.14s1.36.12,2.05.24a12.8,12.8,0,0,1,2,.46,4.91,4.91,0,0,1,1.54.73,1.48,1.48,0,0,1,.38.36,1.17,1.17,0,0,1,.21.4,1.78,1.78,0,0,1,.05.28l0,.08v0c0-.12,0,0,0-.06h0v.41c0,.17,0,.24,0,.39s0,.27,0,.4a3.09,3.09,0,0,1-.48,1.35,5.83,5.83,0,0,1-1,1.07,7.45,7.45,0,0,0-4.82,4.77h0a7.71,7.71,0,0,0-.3,2.48,14.63,14.63,0,0,0-3.85,0,2.07,2.07,0,0,0,.25-.15c3.13-2,.48-4.4-1.55-5.76,2.41.1,6.52-.22,4.93-3.9-1.81-4.19-5,1-6.14,3-1.67-1.39-6-4.48-6.92-.19-.85,4,3.81,2.44,6.22,1.41-.11,1.92-.07,5.21,1.39,5.86-.78.15-1.53.33-2.27.5l-1.16.27c-.5.12-1,.24-1.52.38C262.1,133.17,260.44,132.74,259.57,131.18Zm-2.05,4a8.09,8.09,0,0,0,1.3.92,9.76,9.76,0,0,0-2.44,2.52c-.32-.2-.65-.39-1-.56.26-.23.5-.49.74-.74a10,10,0,0,0,.8-1.08l.34-.56Zm-38.2,31.35a12,12,0,0,1-.1-2.25,11.54,11.54,0,0,1,13-10.7,13,13,0,0,1,10.07,6.65L242,243.76c-6.91,3.11-11.77,7.4-14.23,12.41-.09-2.36-.19-4.73-.28-7.09-.24-6.17-.55-12.3-.81-18.26s-.57-11.85-.85-17.43-.57-10.95-.85-15.91c-.55-10-1.08-18.4-1.48-24.34s-.65-9.4-.65-9.4,0,3.43.06,9.39.18,14.34.39,24.33c.1,4.95.2,10.29.36,15.9s.28,11.41.48,17.42.35,12.08.59,18.26.44,12.32.67,18.47.5,12.16.75,18.09.54,11.63.79,17.16.53,10.78.79,15.76.52,9.6.78,13.87c.48,8.48,1,15.48,1.29,20.35l.55,7.59s0-2.75,0-7.58-.1-11.86-.26-20.33c-.07-4.27-.16-8.92-.28-13.86s-.24-10.25-.41-15.75-.3-11.28-.52-17.16c-.13-3.56-.25-7.17-.38-10.8.19.43.4.86.64,1.3s.6,1,.91,1.56.71,1,1.09,1.59a33.41,33.41,0,0,0,2.73,3.16,41,41,0,0,0,3.39,3.08c1.25,1,2.57,2,4,2.88l.61.38-.26,74.58-11.66-1.25,11.66,2.41v1.24l-13.2-2.21Zm60.9,201,5-67.46,1.37,0q-.29,4.38-.58,8.61c-.37,5.44-.69,10.66-1,15.59s-.58,9.5-.81,13.72c-.48,8.4-.81,15.33-1,20.15s-.3,7.52-.3,7.52.3-2.71.84-7.47,1.25-11.7,2.06-20.07c.41-4.21.85-8.8,1.29-13.68s.93-10.13,1.39-15.55c.24-2.93.51-5.91.77-8.95,2.33-.14,4.62-.39,6.84-.73s4.13-.75,6.09-1.26l-7.74,71.14Zm25.42-70.63.71-.22.82-.29c-.52,4.86-1,9.63-1.48,14.23-.57,5.41-1.07,10.62-1.55,15.53s-.91,9.47-1.29,13.68c-.78,8.37-1.35,15.28-1.74,20.09s-.57,7.5-.57,7.5l1.1-7.45c.7-4.77,1.67-11.64,2.77-20,.56-4.19,1.17-8.76,1.78-13.63s1.3-10.08,1.94-15.49c.61-5,1.27-10.26,1.88-15.6l.89-.39a41,41,0,0,0,4-2.13,32.76,32.76,0,0,0,3.4-2.38c.49-.43,1-.84,1.43-1.26s.89-.84,1.26-1.28a18,18,0,0,0,3.22-4.9c.15-.37.32-.71.42-1.05s.2-.66.29-.95c.14-.6.24-1.12.31-1.53.08-.83.12-1.27.12-1.27l-.38,1.23c-.16.39-.34.86-.59,1.4a18.45,18.45,0,0,1-1,1.81,19.27,19.27,0,0,1-3.69,4.16,28.57,28.57,0,0,1-6.19,3.95c-1,.48-2,.93-3.12,1.36l0-.22c8.14-4.11,13.17-10,14.2-16.87,1.09-7.29-2.41-14.72-9.92-21.13.5-4.68,1-9.32,1.46-13.86.63-5.91,1.19-11.68,1.74-17.18S319,212,319.42,207.1c.94-9.86,1.66-18.17,2.15-24s.75-9.29.75-9.29L321,183c-.82,5.83-2,14.09-3.24,23.91-.64,4.87-1.32,10.12-2,15.64s-1.42,11.23-2.12,17.14c-.47,4-1,8-1.45,12.11-.46-.34-.93-.68-1.42-1l9.15-82.56a12.65,12.65,0,0,1,11.18-4.68,12,12,0,0,1,11,11.3l-29,196.2-15.46-1.66Zm76.89-115.2-2.34,11c-.89,4.22-1.9,9-3,14.1l-3.57,16.39C372.33,229,371,235,369.64,241.15c-2.74,12.22-5.63,25.07-8.47,37.72-2.87,12.46-5.7,24.74-8.32,36.09-1.28,5.62-2.57,11-3.77,16.09s-2.32,9.79-3.36,14.15-2,8.28-2.83,11.76-1.57,6.48-2.18,9c-1.21,4.92-1.91,7.71-1.91,7.71l1.6-7.76c.53-2.49,1.16-5.51,1.9-9s1.57-7.47,2.52-11.82,2-9.13,3.07-14.19,2.27-10.51,3.54-16.13c2.54-11.37,5.28-23.66,8.07-36.14l8.65-37.69c1.4-6.17,2.83-12.17,4.18-17.89l3.85-16.35c1.2-5.12,2.34-9.84,3.36-14s1.91-7.92,2.65-11c1.51-6.14,2.37-9.67,2.37-9.67ZM318.71,369.41c.41-2.55.93-5.66,1.51-9.25s1.26-7.68,2-12.16,1.6-9.39,2.49-14.61,1.83-10.82,2.87-16.61c2.06-11.71,4.3-24.39,6.57-37.25,2.39-13.06,4.8-26.31,7.11-38.92,1.14-6.37,2.33-12.57,3.44-18.49s2.2-11.63,3.19-16.9,1.94-10.18,2.78-14.53,1.59-8.2,2.21-11.36c1.26-6.36,2-10,2-10l-1.64,10.07c-.52,3.17-1.16,7-1.89,11.4s-1.53,9.27-2.46,14.58-1.88,11-2.9,16.94-2.07,12.16-3.22,18.53c-2.24,12.62-4.6,25.88-6.91,38.94-2.36,12.86-4.69,25.52-6.83,37.22-1.05,5.79-2.12,11.34-3.11,16.58s-1.92,10.08-2.77,14.57-1.63,8.52-2.34,12.11-1.31,6.67-1.8,9.21c-1,5.06-1.59,7.94-1.59,7.94S317.89,374.5,318.71,369.41Zm54.18-188.6L370.73,192c-.83,4.27-1.76,9.06-2.81,14.24s-2.15,10.72-3.32,16.56-2.37,11.88-3.67,18.11L353.06,279c-2.67,12.58-5.31,25-7.75,36.43-1.19,5.67-2.39,11.11-3.52,16.23s-2.16,9.89-3.12,14.28-1.85,8.36-2.65,11.87-1.47,6.53-2,9l-1.79,7.78s.53-2.84,1.48-7.83c.48-2.51,1.07-5.56,1.74-9.08s1.45-7.53,2.34-11.92,1.83-9.21,2.85-14.32,2.09-10.6,3.28-16.27c2.35-11.47,4.9-23.88,7.49-36.47,2.71-12.77,5.45-25.73,8.06-38.06,1.3-6.24,2.64-12.29,3.9-18.08s2.47-11.36,3.59-16.51,2.19-9.94,3.14-14.19,1.79-8,2.48-11.09l2.22-9.76S374.09,174.57,372.89,180.81Zm-9.52-.86-2.05,11.26c-.78,4.31-1.66,9.16-2.65,14.4s-2,10.83-3.14,16.73-2.23,12-3.46,18.31c-2.42,12.47-4.95,25.57-7.45,38.48-2.53,12.71-5,25.23-7.34,36.8-1.12,5.72-2.26,11.21-3.33,16.39s-2.06,10-3,14.41-1.75,8.44-2.51,12-1.4,6.6-1.93,9.12c-1.08,5-1.7,7.85-1.7,7.85s.5-2.86,1.39-7.9c.45-2.53,1-5.61,1.65-9.16s1.36-7.6,2.19-12l2.69-14.45c1-5.19,2-10.7,3.1-16.43,2.22-11.59,4.64-24.12,7.08-36.84,2.56-12.9,5.16-26,7.64-38.46,1.23-6.29,2.5-12.42,3.69-18.26s2.35-11.49,3.42-16.69,2.07-10.06,3-14.35,1.7-8.09,2.35-11.22c1.35-6.27,2.12-9.88,2.12-9.88S364.49,173.64,363.37,180Zm1.23-22.75a8.56,8.56,0,0,1-.8,1.7,7.11,7.11,0,0,0,0-.93l0-.2v-.12l0-.07-.05-.26-.1-.52c-.08-.36-.19-.77-.3-1.14s-.23-.72-.36-1.06a16.75,16.75,0,0,0-.9-1.9,13.54,13.54,0,0,0-1.05-1.58,11.19,11.19,0,0,0-2-2.05,6.17,6.17,0,0,0-.68-.47l-.26-.15s0,.4.07,1.09.14,1.6.24,2.66.24,2.21.37,3.49c0,.31.07.62.1.93s0,.58.07.92l.05.53,0,.26v.12s0-.06,0,0h0v.06a1.8,1.8,0,0,1,0,.43,1.6,1.6,0,0,1-.33.73,4.5,4.5,0,0,1-1,.93,21.78,21.78,0,0,1-2.88,1.7l-.29.15a5.89,5.89,0,0,0-2.57-.89,8.65,8.65,0,0,0-4.92,1.15,19,19,0,0,1-5.42-3.75l-.32-.28c-.45-.4-.87-.79-1.25-1.19a20.49,20.49,0,0,1,.95-8.95,16.68,16.68,0,0,0,3.53,2.52c-1.42,1.58-4.57,5.67-.29,6.67,4,.94,2.51-3.6,1.5-6,2.6.21,7.72.22,5.54-3.23-1.95-3.09-4.45-.57-5.85,1.37.12-1.89,0-4.9-2.1-5.16.19-.2.39-.39.6-.58.49-.13,1-.25,1.55-.37l1.24-.29a18.6,18.6,0,0,1,6-.73,8.64,8.64,0,0,1,1.64.32c2.46.76,3.74,2.6,5.22,4.73.45.64.91,1.31,1.42,2l1,1.22C364.06,153.66,365.26,155.28,364.6,157.2Zm-30.05-44,.22.05c2.05.41,3.22,1.23,3.49,2.43.11.5,0,1.18-1.11,2.42-1,.18-2,.42-3,.64L333,119l-1,.25a11.2,11.2,0,0,0-3.59-4.86,8.74,8.74,0,0,1,3-1.44,4.52,4.52,0,0,1,1.52,0A16.54,16.54,0,0,1,334.55,113.21Zm-4.73,11.2a24.87,24.87,0,0,1,4.08-1.22l1.25-.29a18.36,18.36,0,0,1,6-.76,8.77,8.77,0,0,1,1.65.33,7.49,7.49,0,0,1,3.68,2.62l-.86-.25c-.49-.14-.89-.2-1.16-.26l-.41-.06,1.15,1.06c.71.67,1.72,1.61,2.79,2.77a19.53,19.53,0,0,1,1.57,1.88,9,9,0,0,1,1.16,2.12,3.5,3.5,0,0,1,.14,2,2.74,2.74,0,0,1-.15.46,1.46,1.46,0,0,1-.1.23l-.06.12,0,0h0l-.21.35a1.28,1.28,0,0,1-.1.17l-.07.1-.14.19-.18.22a5.46,5.46,0,0,1-1.8,1.42,9,9,0,0,1-1.14.45,9.94,9.94,0,0,1-1.23.26,11.58,11.58,0,0,1-2.56.1,14.92,14.92,0,0,1-2.4-.34,17.16,17.16,0,0,1-3.6-1.22l-1-.53-.35-.21s0,.13.17.37a5.68,5.68,0,0,0,.61,1,9,9,0,0,0,1.23,1.39,11.48,11.48,0,0,0,2,1.46c.26.15.53.3.82.44a18.8,18.8,0,0,0-2.34,1,33,33,0,0,0-2.26-3l-1-1.18c-.44-.56-.86-1.15-1.3-1.79a19.33,19.33,0,0,0-4.22-4.72C328.62,129.17,328.1,126.57,329.82,124.41Zm55.89,35.46a5.21,5.21,0,0,1,1.16,1.83,1.33,1.33,0,0,1,.06.72,1.38,1.38,0,0,1-.28.63,2.82,2.82,0,0,1-1.53,1.08,8.4,8.4,0,0,1-2.56.38,17.85,17.85,0,0,1-2.83-.17c-.94-.12-1.85-.28-2.72-.46s-1.69-.4-2.45-.61l-1.21-.36a6.28,6.28,0,0,0,2.15-5.74c1.69-.32,2.83-1.15,1.62-3.11-.91-1.46-2-1.66-3-1.26q-.33-.69-.75-1.44a12,12,0,0,1,2.93-.1,8.69,8.69,0,0,1,1.63.32c2.09.64,3.3,2.06,4.51,3.77-.4-.1-.77-.18-1.09-.24a10.92,10.92,0,0,0-1.55-.21l1.2.92,1.33,1c.5.4,1.06.85,1.64,1.35A17.69,17.69,0,0,1,385.71,159.87ZM378.06,131l-.66.42c-.27.17-.54.35-.81.51a16.88,16.88,0,0,0-6-3.5,20.1,20.1,0,0,0-3.42-.71c-.23-.29-.45-.6-.71-.9l.25.07a9.73,9.73,0,0,0,5.12.7,17.12,17.12,0,0,1,4.73-.2l.28,0c3.12.16,4,.89,4.16,1.15C380.94,128.72,380.5,129.43,378.06,131Zm-12,.86a15.8,15.8,0,0,1,3.16.62,12.78,12.78,0,0,1,4.4,2.6c-.11,0-.22-.06-.33-.09a25.36,25.36,0,0,0-3.69-.64c-.91-.08-1.43-.07-1.43-.07l1.18.73c.75.46,1.82,1.1,3,1.88.62.39,1.27.82,1.93,1.28s1.34,1,2,1.5a9.7,9.7,0,0,1,1.64,1.71,2.46,2.46,0,0,1,.57,1.5,1.5,1.5,0,0,1-.16.57c-.06.11-.12.23-.19.34a4.21,4.21,0,0,1-.31.43,4.16,4.16,0,0,1-1.35,1.14,10.7,10.7,0,0,1-4,.88c-1.41.11-2.69.15-3.6.22s-1.46.14-1.46.14a3,3,0,0,0,.29.24c.2.15.49.37.87.62s.56.35.9.53l-1.18.27-1,.23c-.62-2.41-2-6.48-4.63-8.93,1.69-1.5,2.83-3.31.08-4.24-1.9-.64-2.88.07-3.38,1.23a5.72,5.72,0,0,1-.82-4.09c.41-.11.84-.22,1.29-.31A21.88,21.88,0,0,1,366.06,131.82Zm-8-7.4a17.05,17.05,0,0,1,3.52,3.19c-.83.08-1.66.19-2.47.35a18.37,18.37,0,0,0-4,1.27c-.36-.47-.73-.92-1.09-1.37s-.64-.79-1-1.2c-.44-.56-.85-1.16-1.3-1.8a22.14,22.14,0,0,0-3.19-3.94c.5.06,1,.14,1.46.24A25.31,25.31,0,0,1,358,124.42Zm-27.83,13.87.82,1.13c-.4-.27-.8-.5-1.18-.71a17.18,17.18,0,0,0-3.92-1.53,10.89,10.89,0,0,0-1.14-.25,4.06,4.06,0,0,0-.42-.06l1.15,1c.72.66,1.73,1.59,2.81,2.73a20.79,20.79,0,0,1,1.57,1.86,8.86,8.86,0,0,1,1.17,2.08,3.45,3.45,0,0,1,.16,1.93,2.59,2.59,0,0,1-.14.45,1.2,1.2,0,0,1-.11.23l0,.11,0,.06h0l-.2.35a1.28,1.28,0,0,1-.1.17l-.07.09-.13.2-.19.21a5.1,5.1,0,0,1-1.77,1.4,7.77,7.77,0,0,1-1.11.44,9.94,9.94,0,0,1-1.23.26,11.91,11.91,0,0,1-2.53.1,14.67,14.67,0,0,1-2.38-.34,16.54,16.54,0,0,1-3.59-1.21c-.42-.21-.77-.38-1-.52l-.36-.21.18.37a7.14,7.14,0,0,0,.62,1,9,9,0,0,0,1.23,1.37,11.89,11.89,0,0,0,2,1.44,12.91,12.91,0,0,0,2.7,1.17,12.23,12.23,0,0,0,2.74.5,19.67,19.67,0,0,1-7.17-.62c-2.34-.7-4.25-2.38-6.11-4l-.33-.29a15.73,15.73,0,0,1-3.51-4.14c1.62-.21,3.82-1.75,4.9-2.58,1,1.87,3.69,6.24,6.29,2.74,2.43-3.27-2.51-3.61-5.15-3.58,1.19-2.28,3.15-6.94-1-6.22-3.7.64-2.23,3.83-.9,5.82-1.5-.69-3.84-1.49-5.14-.63a7.12,7.12,0,0,1,.27-1.28h0c.79-2.53,3.16-4,8.2-5.14l1.24-.29c2.61-.61,5.07-1.19,7.63-.41S328.68,136.14,330.19,138.29Zm-3.86-27.69a14.6,14.6,0,0,0-1.47,1.12l-.47.44a23.3,23.3,0,0,0-4.15-1.21l-.43-.09c-.92-.18-1.87-.37-2.85-.52a5.18,5.18,0,0,1,.56-.79,6,6,0,0,1,2.86-1.9,2.11,2.11,0,0,1,.67,0,10,10,0,0,1,1.95.5l.21.07A5,5,0,0,1,326.33,110.6Zm-15.51-1.81a14.8,14.8,0,0,1,1.76.18,10.13,10.13,0,0,0-.44,1.2,14.14,14.14,0,0,0-1.67.27,23.69,23.69,0,0,0-8.51,4.09l-.53-.11h0a9.82,9.82,0,0,0-3.57-1.72c-.15-1.85.09-4.24.82-5h0a13.31,13.31,0,0,1,2,.55,9.92,9.92,0,0,0,5.16.7,16.74,16.74,0,0,1,4.73-.21Zm-16.6,7.58a17,17,0,0,1,1.69.28l.22,0a6.38,6.38,0,0,1,2.44.93,14.1,14.1,0,0,0-3,5.53,20.09,20.09,0,0,0-5.72-.1l-.74-.29a10,10,0,0,0-.62-3.72,5.15,5.15,0,0,1,.65-.69,8.79,8.79,0,0,1,3.56-1.94A4.73,4.73,0,0,1,294.22,116.37Zm-47.94,7.16a15.73,15.73,0,0,1,5.63-.49,12,12,0,0,1,2.16.42l.54.2a13.68,13.68,0,0,0-.38,2.26l0,0a7.53,7.53,0,0,0-1.22-.45,5,5,0,0,0-1.12-.21l.53,1,.55,1c.19.4.4.83.58,1.28.08.23.19.46.25.69a4.62,4.62,0,0,1,.17.69,5.23,5.23,0,0,1,.08.65,2.48,2.48,0,0,1-.05.56,2.52,2.52,0,0,1-.13.49.72.72,0,0,1-.12.23l-.05.12,0,0h0l0,0-.24.47-.11.24-.1.16c-.07.11-.13.22-.19.33l-.22.34c-.13.25-.3.42-.43.64s-.29.38-.44.52-.3.28-.44.43l-.22.16-.12.09-.12.07a3.54,3.54,0,0,1-1.12.44c-.22,0-.45,0-.68.1l-.71,0c-.24,0-.48,0-.71,0a4.94,4.94,0,0,1-.68,0c-.43-.06-.84-.08-1.17-.15-.67-.09-1.1-.12-1.1-.12l0,.08-.26-.19a11.78,11.78,0,0,0-4.61-2.22,4.29,4.29,0,0,1-.43-3.27c.07-.24.15-.47.23-.7,1.15.32,3.07-.37,4.29-.89-.09,2.13.06,6.33,2.93,4.49,2.57-1.64.35-3.65-1.35-4.78,2,.09,5.4-.17,4-3.22-1.54-3.47-4.16.83-5.05,2.5a11,11,0,0,0-2.62-1.67A9.83,9.83,0,0,1,246.28,123.53Z"/><path class="cls-1" d="M214.59,335.91c1.83.24,3.7.43,5.58.61l-.58-12.06c-3.21.29-6.54.55-10,.77.26,3.53.5,6.89.72,10Q212.42,335.61,214.59,335.91Z"/><path class="cls-1" d="M209,223.85c1.11.78,2.32,1.48,3.53,2.21.78.47,1.6.9,2.43,1.33l-1.8-37.34a5.88,5.88,0,0,1-1.3,2,6.24,6.24,0,0,1-1.68,1.15l-.36.14-.41.14-.7.24c-.92.33-1.85.59-2.74.88s-2,.59-2.92.83l.79,4.54a8.71,8.71,0,0,1-3.54,8.6c.2,2.33.45,5.32.74,8.84.63.59,1.32,1.23,2.09,1.91A61.18,61.18,0,0,0,209,223.85Z"/><path class="cls-1" d="M203.05,236.15c.51.36,1,.69,1.54,1l2.93,2c1.95,1.13,3.82,2,5.47,2.95l2.69,1.12-.6-12.36-.12-.05a40.49,40.49,0,0,1-7.57-4.81,35.53,35.53,0,0,1-5.54-5.48c-.24-.29-.44-.57-.66-.85.39,4.66.84,10.1,1.33,16.08Z"/><path class="cls-1" d="M227.35,369.86a6.85,6.85,0,0,1-5.87-6.2l-1.17-24.32c-2.06-.24-4.1-.51-6.1-.8-1.26-.2-2.5-.41-3.73-.63.56,8.27,1,14.88,1.1,18.89.11,2.6-.72,7.72-7.53,12.76a35.89,35.89,0,0,1-5.3,3.2l.54.12a187.35,187.35,0,0,0,59,2.14Z"/><path class="cls-1" d="M271.76,3.54C169.93-16.44,70.83,50.15,50.85,152a187.92,187.92,0,0,0,40.8,157.39A152.87,152.87,0,0,1,42.5,264.5C-9.5,190.6,67.8,54.09,67.8,54.09L38.42,34.18S-38.8,169.39,25.71,266c24.5,36.7,57.52,55.06,85.84,64.22-1.48-5.35-3-10.92-4.58-16.61a178.38,178.38,0,0,1-44.54-74.89A177.36,177.36,0,0,1,56,167.65,180.94,180.94,0,0,1,80.19,95.17,180.29,180.29,0,0,1,208.08,9.23a180.85,180.85,0,0,1,76.24,4.94A177.29,177.29,0,0,1,347.74,47a182.26,182.26,0,0,1,41.81,48.31,177,177,0,0,1,20.08,50.05,179.25,179.25,0,0,1,4.69,41.25,187.6,187.6,0,0,1-2.21,26.59c-1.13,6-1.73,9.28-1.73,9.28l1.41-9.32a205,205,0,0,0,1.37-26.54,176.81,176.81,0,0,0-5.68-40.73,170.27,170.27,0,0,0-8.1-23.94,186.52,186.52,0,0,0-12.69-24.91,176.49,176.49,0,0,0-301.59,1,179.15,179.15,0,0,0-15.82,34.22l-1.49,4.42-1.26,4.45c-.41,1.48-.83,3-1.24,4.43s-.69,3.06-1,4.58-.67,3-1,4.49-.53,3-.79,4.52-.55,3-.77,4.51-.36,3-.55,4.52A176.47,176.47,0,0,0,94,293.73c3.63,4.89,7.4,9.49,11.25,13.78C96.53,275.58,87.45,241.82,84,228.86A8.73,8.73,0,0,1,77.73,222l-1.89-10.84a8.68,8.68,0,0,1,6.2-9.87c3.1-.88,6.25-1.72,9.41-2.52-.07-1-.15-1.89-.2-2.84A8.46,8.46,0,0,1,94.19,189a8.67,8.67,0,0,1,7.42-2l12.62,2.47c0,1.33.07,2.65.12,4,6.84-1.42,12.82-2.56,17.05-3.33l-3.85-41.33c-4.54-1-8.38-2-11.31-2.64-4-.95-6.31-1.54-6.31-1.54s2.34.32,6.42,1c2.88.47,6.65,1,11.06,1.76l-1.11-11.89c-.9,1.88-1.77,3.79-2.59,5.73l-12.62-2.48a8.65,8.65,0,0,1-6.12-4.64,8.46,8.46,0,0,1-.12-7.49,144.47,144.47,0,0,1,52-59.41A8.4,8.4,0,0,1,163,66a10.18,10.18,0,0,1,1.17.32,8.73,8.73,0,0,1,5.44,5.44L173.48,83a145.79,145.79,0,0,0-19.07,15,121.67,121.67,0,0,0-14.52,15.56l3.4,36.44,1.23.21,6.14,1.09,3.18.57,1.61.3c.52.07,1,.17,1.5.19a13.48,13.48,0,0,0,11-4.47,18.77,18.77,0,0,0,1.92-2.65c.64-1,1.32-2,2-3,1.4-1.94,2.89-3.83,4.46-5.65s3.27-3.54,5-5.19c.86-.81,1.77-1.63,2.66-2.4a19.81,19.81,0,0,0,2.37-2.25,13.53,13.53,0,0,0,3-11.51,13.06,13.06,0,0,0-.39-1.49l-.51-1.55-1-3.07-1.91-6c-1.23-3.86-2.39-7.52-3.46-10.89C180,85.62,178.36,80,177.15,76s-1.83-6.23-1.83-6.23.89,2.19,2.38,6,3.63,9.35,6.08,16l3.95,10.73,2.13,5.86c.36,1,.72,2,1.09,3l.55,1.54c.19.65.35,1,.49,1.7a16.08,16.08,0,0,1-3.34,14,22.27,22.27,0,0,1-2.67,2.59c-.87.76-1.7,1.52-2.54,2.33-1.66,1.6-3.26,3.27-4.78,5s-3,3.55-4.33,5.41c-.67.93-1.33,1.87-2,2.83a20.74,20.74,0,0,1-2.22,3,16,16,0,0,1-13.44,5.17c-.59,0-1.2-.18-1.76-.27l-1.61-.34-3.16-.67-6.1-1.31-.58-.13,3.28,35.15c7-1.12,16.83-2.59,27.38-3.81.05-.82.11-1.64.2-2.47l.42-3.18.21-1.59v-.1l.06-.23,0-.19.09-.38.18-.75c.24-1,.47-2,.71-3l.37-1.52.54-1.59a51.5,51.5,0,0,1,2.4-6.28c.48-1,1-2,1.43-3s1.12-1.93,1.67-2.91a60.35,60.35,0,0,1,43.67-29.34,55.84,55.84,0,0,1,7.17-.64,15.5,15.5,0,0,1,8.23-8.71c.43-3.31,2.56-10.51,8.53-11.83a7.14,7.14,0,0,1,1.45-.15,7.36,7.36,0,0,1,1.48.15,18.09,18.09,0,0,1,7.63-4.08,12.84,12.84,0,0,1,2.88-.32,21.45,21.45,0,0,1,4.42.55l.26.05a16.43,16.43,0,0,1,5.26,2,12.2,12.2,0,0,1,4.1-1.87,9.58,9.58,0,0,1,2.15-.25,13.35,13.35,0,0,1,4.09.74l3.48-4.14c2.74-3.2,5.54-6.54,8.45-9.87l8.77-10.14L306.74,76a15.49,15.49,0,0,0,1.78-2.48,13,13,0,0,0,1.67-5.7A13.57,13.57,0,0,0,306,57.25a9.73,9.73,0,0,0-1.06-.9l-.54-.42-.66-.4-.67-.39-.16-.1h0l-.09-.05-.33-.17-1.35-.7q-2.69-1.38-5.3-2.59c-3.48-1.61-6.82-3-9.94-4.24-6.26-2.41-11.6-4.12-15.39-5.15s-6-1.61-6-1.61l1.6.25c1,.16,2.57.39,4.5.79a137.5,137.5,0,0,1,15.84,4.1c3.22,1.05,6.68,2.3,10.27,3.81,1.79.75,3.63,1.55,5.48,2.41a20.74,20.74,0,0,1,5.58,3.43A16,16,0,0,1,311.1,75,18.44,18.44,0,0,1,309,78l-2.2,2.55L297.93,90.6c-2.91,3.34-5.84,6.56-8.64,9.71l-3,3.32a13,13,0,0,1,4.33,3.24,9.58,9.58,0,0,1,4-5.8,7.09,7.09,0,0,1,3.84-1.07,14.74,14.74,0,0,1,4.55.93c.31.1,1,.33,1.45.43a20.66,20.66,0,0,1,4.08-.38c.87,0,1.67,0,2.38.08h.28a21,21,0,0,1,4,.55,12,12,0,0,1,3.48-1.46,9.73,9.73,0,0,1,2.16-.24,14.53,14.53,0,0,1,4.62.9l.2.07a13,13,0,0,1,6.53,4.55h.12a19.54,19.54,0,0,1,3.82.46l.2,0c4.76,1,8.06,3.7,9.14,7.56a15.49,15.49,0,0,1,1.82-.1,20.29,20.29,0,0,1,3.2.3c-2.65-3.56-5.35-6.88-8.08-10a8.7,8.7,0,0,1,5.28-1.42,7.87,7.87,0,0,1,1.2.15,8.39,8.39,0,0,1,5.3,3.45q4,5.84,7.47,12l.53.32c.31.2.62.42.93.64a8.07,8.07,0,0,1,1.64-.17,12.49,12.49,0,0,1,3.7.66c-.75-1.55-1.48-3-2.17-4.38l-1.95-3.67-1.76-3.06c-1-1.86-2-3.28-2.53-4.26l-.91-1.51,1,1.42c.66.93,1.73,2.23,2.89,4l2,3,2.21,3.55c1,1.68,2.1,3.54,3.19,5.54a1.54,1.54,0,0,0,.27.07,20.38,20.38,0,0,1,4.05-.37c.88,0,1.69,0,2.39.08h.28c8.59.44,10.71,4.69,11.21,7.19.81,4-1.76,7-4.07,8.78a14.54,14.54,0,0,1,2.13,13,31.61,31.61,0,0,1,2.64,3.46c.39.58.76,1.13,1.13,1.6l.89,1.12c1.84,2.3,4.25,5.3,4.38,9.17a8.61,8.61,0,0,1,1.62,1.57c2.81,3.61,2,8.1,1.09,13.3-.21,1.15-.42,2.35-.61,3.58a7.37,7.37,0,0,1-.16.79L357.79,331.16a187.22,187.22,0,0,0,62.4-106.72C440.17,122.62,373.58,23.52,271.76,3.54Zm23.28,79A121.23,121.23,0,0,0,258.88,69.2L257.79,69a108.43,108.43,0,0,1,39.6,10.83Zm5.72-23.24a8.8,8.8,0,0,1,4.72,6.21,8.55,8.55,0,0,1-2,7.29,118.69,118.69,0,0,0-48-13,128,128,0,0,0-36.78,3.43l-2.58-7.54a8.56,8.56,0,0,1,.94-7.52,8.81,8.81,0,0,1,6.72-4A145.44,145.44,0,0,1,300.76,59.29Z"/><path class="cls-1" d="M204.32,141.76a56.88,56.88,0,0,0-16.84,17.67c-.51.88-1.11,1.7-1.54,2.62l-1.32,2.72a47.73,47.73,0,0,0-2.26,5.46l-.52,1.37c-.14.48-.26,1-.4,1.5-.26,1-.53,2-.79,3l-.35,1.36-.23,1.45-.45,2.9c-.06.42-.09.85-.13,1.27,4.4-.46,8.86-.86,13.24-1.17l.61,0a8.69,8.69,0,0,1,8.57,7.21l.71,4.07c.75-.37,1.55-.73,2.39-1.1s1.74-.77,2.65-1.12l.68-.28.62-.26a3.18,3.18,0,0,0,.75-.55,3.22,3.22,0,0,0,.92-1.73c.05-.27.06-.82.12-1.34s.13-1,.21-1.5a16.26,16.26,0,0,1,.7-2.75,19.84,19.84,0,0,1,.91-2.29,1.55,1.55,0,0,0,.06-.23l-.14-3a4.46,4.46,0,0,0-.57-1l.32.18.22.15L212,167a19.79,19.79,0,0,1-.12-3.25c0-.48.07-.95.13-1.41-2.33-2.36-3.72-4-3.72-4s1.59.9,4,2.49a18.51,18.51,0,0,1,11.4-13.25,11.58,11.58,0,0,1,3.38-4.57,2.69,2.69,0,0,0,.33-.31c0-.24-.12-.67-.2-1-.94-4.12,0-7.18,2.78-9.19-1,.11-1.95.23-2.93.38A57.09,57.09,0,0,0,204.32,141.76Z"/><path class="cls-1" d="M252.77,260.59l-1.89-.19.18-2.6,2.15.21a9.92,9.92,0,0,0,2.19,0,4.32,4.32,0,0,0,1.7-.57,3.24,3.24,0,0,0,1.13-1.22,4.54,4.54,0,0,0,.51-1.95,4.94,4.94,0,0,0-.21-2,3.46,3.46,0,0,0-.95-1.43,4.21,4.21,0,0,0-1.6-.9,9.05,9.05,0,0,0-2.17-.44l-8.89-.86-.2,3,1.19.11-.54,8.16-1.19-.11-.19,3,8.57.82Zm-1.33-8.35.68.07a1,1,0,0,1,1.06,1.27l0,.66a1.14,1.14,0,0,1-.36.86,1.18,1.18,0,0,1-.87.19l-.67-.06Z"/><path class="cls-1" d="M258.86,260.47a5.94,5.94,0,0,0,1.34,2.39,6.07,6.07,0,0,0,2.28,1.49,12.62,12.62,0,0,0,6.21.6,6,6,0,0,0,2.47-1,5.73,5.73,0,0,0,1.69-2.1,9.25,9.25,0,0,0,.8-3.32,9.55,9.55,0,0,0-.25-3.43,5.75,5.75,0,0,0-1.33-2.42,6.19,6.19,0,0,0-2.28-1.51,11.47,11.47,0,0,0-3.1-.7,11.3,11.3,0,0,0-3.16.1,6,6,0,0,0-2.49,1.05,5.66,5.66,0,0,0-1.68,2.13,11,11,0,0,0-.5,6.75ZM265,254.9a1.31,1.31,0,0,1,.41-1,1.44,1.44,0,0,1,1-.23,1.51,1.51,0,0,1,1,.42,1.37,1.37,0,0,1,.25,1.06l-.43,5.47a1.31,1.31,0,0,1-.41,1,1.41,1.41,0,0,1-1,.22,1.44,1.44,0,0,1-1-.41,1.39,1.39,0,0,1-.26-1.05Z"/><path class="cls-1" d="M282.53,263.45l-1.89-.18.23-2.6,2.15.21a10,10,0,0,0,2.2,0,4.27,4.27,0,0,0,1.71-.58,3.19,3.19,0,0,0,1.15-1.21,4.63,4.63,0,0,0,.55-1.95,4.81,4.81,0,0,0-.19-2,3.33,3.33,0,0,0-.92-1.42,4.12,4.12,0,0,0-1.58-.9,9.68,9.68,0,0,0-2.17-.44l-8.9-.86-.25,3,1.19.12-.68,8.15-1.18-.12-.25,2.95,8.57.83Zm-1.18-8.33.67.06a1,1,0,0,1,1.05,1.28l-.06.65a1.18,1.18,0,0,1-.37.86,1.22,1.22,0,0,1-.88.19l-.67-.06Z"/><path class="cls-1" d="M242.1,276a6.26,6.26,0,0,0,2.23,1.52,11.82,11.82,0,0,0,3.06.76,15.77,15.77,0,0,0,2.08.13,13.93,13.93,0,0,0,1.68-.11,7.6,7.6,0,0,0,1.33-.27q.57-.17,1-.33l.47-4.58-4.69-.57-.14,1.44a1.28,1.28,0,0,1-.43,1,1.35,1.35,0,0,1-1,.18,1.42,1.42,0,0,1-1-.43,1.37,1.37,0,0,1-.23-1l.53-5.36a1.25,1.25,0,0,1,.43-1,1.4,1.4,0,0,1,1-.19,1.45,1.45,0,0,1,1,.43,1.36,1.36,0,0,1,.23,1.05l-.12,1.28,4.68.57.46-4.46c-.27-.17-.59-.37-.94-.57a9.78,9.78,0,0,0-1.25-.59,14.39,14.39,0,0,0-1.63-.51,14.69,14.69,0,0,0-2.08-.38,11.75,11.75,0,0,0-3.14,0,5.87,5.87,0,0,0-2.48,1,5.44,5.44,0,0,0-1.71,2.05,9.08,9.08,0,0,0-.84,3.25,9.24,9.24,0,0,0,.22,3.37A5.65,5.65,0,0,0,242.1,276Z"/><path class="cls-1" d="M269.79,270.45a5.71,5.71,0,0,0-1.25-2.41,6.09,6.09,0,0,0-2.23-1.54,12.42,12.42,0,0,0-6.19-.75,6,6,0,0,0-2.49,1,5.46,5.46,0,0,0-1.72,2.05A9,9,0,0,0,255,272a9.26,9.26,0,0,0,.18,3.36,5.63,5.63,0,0,0,1.27,2.38,6,6,0,0,0,2.21,1.52,11.21,11.21,0,0,0,3,.76,11.52,11.52,0,0,0,3.11,0,6,6,0,0,0,2.48-.95,5.46,5.46,0,0,0,1.73-2,9.23,9.23,0,0,0,.9-3.23A9.38,9.38,0,0,0,269.79,270.45Zm-6.26,5.3a1.28,1.28,0,0,1-.44.95,1.75,1.75,0,0,1-2-.24,1.33,1.33,0,0,1-.23-1l.57-5.36a1.32,1.32,0,0,1,.44-1,1.38,1.38,0,0,1,1-.19,1.44,1.44,0,0,1,1,.43,1.36,1.36,0,0,1,.23,1.05Z"/><path class="cls-1" d="M284.44,274.69a3.89,3.89,0,0,0,.76-2,4.38,4.38,0,0,0-.14-1.92,3.12,3.12,0,0,0-.88-1.36,4.54,4.54,0,0,0-1.55-.89,9.8,9.8,0,0,0-2.14-.47L271.31,267l-.33,2.93,1.17.14-.9,8-1.16-.14-.33,2.89,7.89,1,.34-2.89-1.29-.16.34-2.9a7.36,7.36,0,0,1,1,.19,2,2,0,0,1,.68.32.92.92,0,0,1,.35.54,2.42,2.42,0,0,1,0,.87l-.49,4.15,6.16.74.35-2.88-.91-.11.16-1.36a2,2,0,0,0-1.62-2.32v-.18A2.79,2.79,0,0,0,284.44,274.69Zm-4.83-1.95a1.19,1.19,0,0,1-.39.84,1.25,1.25,0,0,1-.88.16l-1-.13.34-2.91,1.05.12a1.24,1.24,0,0,1,.82.37,1.16,1.16,0,0,1,.18.91Z"/><polygon class="cls-1" points="294.43 269.77 287.17 268.89 286.81 271.81 287.99 271.95 287.02 279.92 285.85 279.78 285.5 282.67 292.3 283.49 292.66 280.61 291.49 280.47 292.12 275.39 296.82 284.04 302.28 284.7 303.7 273.86 304.87 274 305.26 271.09 298.41 270.25 298.03 273.17 299.21 273.32 298.67 277.54 294.43 269.77"/><path class="cls-1" d="M303.68,251.57a58.19,58.19,0,0,0-10-4.26,65.6,65.6,0,0,0-8.14-2.08c-2.28-.45-4.1-.67-5.34-.82l-1.89-.2,1.87.34c.62.1,1.36.28,2.24.46.44.08.91.21,1.41.32s1,.24,1.59.39a73.56,73.56,0,0,1,7.9,2.51,61.13,61.13,0,0,1,9.53,4.58,39.81,39.81,0,0,1,9.38,7.58,22.9,22.9,0,0,1,3.48,5.21,15.34,15.34,0,0,1,1.53,6,12.75,12.75,0,0,1-.3,3.12l-.08.42-.11.37-.22.73a14.44,14.44,0,0,1-.63,1.47,17.24,17.24,0,0,1-4,5.23,33.11,33.11,0,0,1-12.69,6.58,59.42,59.42,0,0,1-14.71,2.33c-2.48.09-4.95.06-7.38-.08s-4.83-.41-7.21-.77a75.42,75.42,0,0,1-13.28-3.3c-2-.73-4-1.55-5.86-2.42a48,48,0,0,1-5.19-2.8,37.57,37.57,0,0,1-7.91-6.42,26.6,26.6,0,0,1-2.55-3.32,19.74,19.74,0,0,1-1.61-3.11,14.94,14.94,0,0,1-1.12-4.72,12,12,0,0,1,0-1.27c0-.29,0-.44,0-.44s0,.15,0,.43a12,12,0,0,0-.07,1.28,13.86,13.86,0,0,0,.75,4.85,19.28,19.28,0,0,0,1.43,3.3,24.09,24.09,0,0,0,2.44,3.56,33.66,33.66,0,0,0,3.44,3.59,42,42,0,0,0,4.41,3.41,55.31,55.31,0,0,0,11.21,5.77,71.88,71.88,0,0,0,13.66,3.73,74.69,74.69,0,0,0,15.08,1.09,62,62,0,0,0,15.43-2.36,35.64,35.64,0,0,0,13.67-7.22,22,22,0,0,0,2.59-2.79,17.45,17.45,0,0,0,1.93-3.2,16.68,16.68,0,0,0,.69-1.72l.26-.92.12-.45.08-.42a15.44,15.44,0,0,0,.27-3.59,16.7,16.7,0,0,0-1.88-6.78,25.19,25.19,0,0,0-4-5.57A39.45,39.45,0,0,0,303.68,251.57Z"/><path class="cls-1" d="M267.87,145.87c-.05,2.35.37,6.36,4,4.89,4.16-1.67-1.12-4.93-3.17-6.06,1.36-1.6,4.39-5.77,0-6.8-4.07-1-2.38,3.69-1.27,6.08-2.62-.2-7.76-.21-5.41,3.27C264.17,150.35,266.55,147.82,267.87,145.87Z"/><path class="cls-1" d="M308.44,122.83c-1.66-1.39-5.94-4.5-7-.18-.94,4,3.78,2.45,6.23,1.41-.2,2.59-.19,7.67,3.37,5.45,3.18-2,.57-4.43-1.44-5.79,2.41.1,6.56-.22,5-3.92C312.94,115.59,309.59,120.81,308.44,122.83Z"/><path class="cls-1" d="M335.25,127.88c-.15,1.58-.21,5.46,2.88,4.21,2.89-1.17-.11-3.31-1.81-4.31,1.7-1,4.86-3.25,1.93-4.4-2.62-1-3,1.6-3,3.4-1-1.49-3-3.83-4.59-1.3C328.87,128.33,333.51,128.07,335.25,127.88Z"/><path class="cls-1" d="M131.92,369.6Z"/><path class="cls-1" d="M120.83,351.67c.21.72.41,1.43.61,2.13,1,3.47,1.9,6.63,2.71,9.38.17.55.33,1.09.48,1.6.46,1.56.89,3,1.27,4.2.25.83.49,1.58.7,2.25a8,8,0,0,0,1.35,2.5q.2.25.42.51a15.83,15.83,0,0,0,7.54,4.37c7.42,2.22,18.87,2,34-.65.95-.16,1.88-.33,2.8-.51a117.75,117.75,0,0,0,18.64-4.92c1.28-.47,2.48-1,3.62-1.46.57-.25,1.12-.5,1.65-.76,1.06-.52,2.06-1.05,3-1.6.46-.27.9-.55,1.33-.83s.83-.56,1.22-.85.7-.53,1-.8.9-.79,1.3-1.18a13.24,13.24,0,0,0,3.51-5.31,8,8,0,0,0,.28-1.12,7.17,7.17,0,0,0,.14-1.34h0v-.34c-.11-2.82-.33-6.94-.65-12,0-.64-.09-1.29-.13-2-.08-1.29-.17-2.63-.27-4,0-.76-.1-1.54-.16-2.33-.15-2.25-.32-4.6-.49-7.05-.06-.88-.13-1.76-.19-2.66-.6-8.27-1.3-17.52-2-27.14l0-.45-.42-5.44,0-.47c-.14-1.82-.29-3.65-.43-5.49l-.51-6.46c-.23-2.84-.45-5.67-.68-8.49,0-.16,0-.32,0-.48-2.3-28.7-4.56-55.71-5.39-65.69l.14-.06.44-.21a5.07,5.07,0,0,0,.82-.46,5.58,5.58,0,0,0,2.36-3.78,5.85,5.85,0,0,0,0-1.77l-.76-4.33h0l-.26-1.49h0l-.87-5a6.57,6.57,0,0,0-.27-1c0-.1-.1-.2-.14-.3s-.18-.41-.3-.6-.15-.21-.22-.32-.23-.33-.35-.47l-.3-.3a5,5,0,0,0-.41-.38c-.11-.09-.23-.16-.35-.25s-.3-.2-.46-.29l-.39-.19c-.17-.07-.33-.15-.5-.21l-.44-.12-.53-.11-.46,0c-.12,0-.23,0-.35,0h-.4c-4.52.32-9.15.74-13.7,1.23h0c-1.75.18-3.48.38-5.2.58h0c-4.14.48-8.17,1-11.94,1.52l-3.08.43-5.73.84c-3.62.55-6.79,1.06-9.33,1.48l-.62-6.64-6.63-71.16-9.23.86,1.5,16h0l1.64,17.63h0l.16,1.67h0l4,43.18-2.83.5-1.76.33c-4,.75-9.5,1.8-15.68,3.09h0c-7,1.47-14.93,3.26-22.83,5.28h0c-3,.76-5.92,1.55-8.81,2.37a5.48,5.48,0,0,0-2.59,1.6c-.07.07-.12.16-.19.24a5.55,5.55,0,0,0-1.26,3.42,5.27,5.27,0,0,0,.08,1l.24,1.4,1.65,9.44a5.56,5.56,0,0,0,5,4.58l.64.05c.25.92.53,2,.86,3.18s.62,2.34,1,3.67c.21.77.42,1.57.65,2.41l4,14.7c.21.77.41,1.55.63,2.34l4.83,17.87c.25.91.49,1.82.74,2.73C106.34,299.53,114.88,330.78,120.83,351.67Zm11.51-205.45c-.17-2.22-.34-4.4-.5-6.52-.32-4.23-.57-8.18-.75-11.57s-.29-6.22-.39-8.2-.09-3.11-.09-3.11.18,1.12.45,3.08.67,4.77,1.08,8.14.87,7.3,1.32,11.52c.21,2.11.43,4.29.66,6.5s.42,4.47.63,6.72.39,4.51.57,6.73.34,4.41.51,6.52c.31,4.23.57,8.18.75,11.57s.28,6.22.38,8.2.1,3.11.1,3.11-.18-1.11-.46-3.08-.67-4.76-1.08-8.13-.87-7.31-1.32-11.52c-.21-2.11-.46-4.29-.66-6.51s-.42-4.47-.63-6.72S132.53,148.44,132.34,146.22ZM84.41,209.64c21.18-6,45.49-10.43,52.23-11.6l1.81-.31,1.81-.33c2.81-.49,8.66-1.48,16.11-2.58-4.81.94-9.78,1.93-14.75,3l-10,2.12-9.68,2.16-9,2.11-8.06,2L98.06,208c-2,.52-3.77,1-5.21,1.46l-4.53,1.29,4.61-1c1.47-.29,3.25-.68,5.3-1l6.89-1.27,8.17-1.37,9.13-1.42,9.78-1.41,10.11-1.35c13.57-1.75,27.16-3.24,37.35-4.28,6.66-.67,11.84-1.14,14.65-1.4l.67,3.85-3.7.6c-3.07.49-7.44,1.27-12.68,2.17s-11.37,1.94-17.92,3.13l-20.52,3.72c-7,1.27-14,2.59-20.5,3.82s-12.64,2.39-17.87,3.41l-12.63,2.45-3,.57Zm6.8,12.59,3.74-.52,43.72,145.21L105,220.31l3-.42L149,369.21l-30.9-150.75,2.37-.35.6-.09,37.68,152.31L131,216.58l3.64-.53,33.83,152.58L144.54,214.57l4.92-.75,26.85,139-17-140.5,1.36-.2c3.92,16.55,24.83,109.06,14.59,155.87l-.78.16c-2.11.45-4.37.84-6.54,1.21s-4.4.76-6.57,1.05l-3.22.43c-1.06.15-2.12.28-3.15.37s-2.06.21-3,.28-2,.17-2.93.2-1.88.08-2.77.08-1.76,0-2.59,0c-1.66,0-3.17-.19-4.5-.35a24.14,24.14,0,0,1-3.4-.75,14.69,14.69,0,0,1-2.1-.83l-.7-.41.62.53a11.23,11.23,0,0,0,2,1.22,20,20,0,0,0,3.39,1.27,32.47,32.47,0,0,0,4.59.9c.85.12,1.74.22,2.66.28s1.87.11,2.85.13c2,.05,4,0,6.15-.1,1.07-.05,2.14-.14,3.23-.24s2.2-.18,3.3-.34c2.22-.27,4.45-.62,6.69-1s4.41-.82,6.62-1.32l1.63-.35,1.6-.42c1.06-.27,2.11-.54,3.13-.85s2.1-.61,3.11-.95a71.48,71.48,0,0,0,7.88-2.91,25.25,25.25,0,0,0,8.07-5.22,7.86,7.86,0,0,0,1.31-1.88,3.29,3.29,0,0,0,.29-.95c0-.05,0,0,0,0v-.5l0-.64c-.09-1.72-.18-3.45-.27-5.2-.23-3.48-.46-7-.69-10.54-.53-7.1-1.06-14.32-1.6-21.53-1.08-14.43-2.16-28.86-3.17-42.39s-1.92-26.16-2.71-37-1.39-19.86-1.83-26.17-.65-9.93-.65-9.93.37,3.6,1,9.9,1.54,15.3,2.51,26.11,2.17,23.42,3.28,36.94,2.24,27.95,3.41,42.38c.49,7.22,1,14.44,1.47,21.55.21,3.56.43,7.09.64,10.58.08,1.75.16,3.48.24,5.2l0,.65,0,.32v.15a1.76,1.76,0,0,1,0,.27,4.79,4.79,0,0,1-.44,1.5,9.28,9.28,0,0,1-1.6,2.29,25.64,25.64,0,0,1-8.64,5.51,71.47,71.47,0,0,1-9.13,3.13c-3,.86-6,1.49-8.87,2.12s-5.65,1.08-8.35,1.44a115.82,115.82,0,0,1-14.79,1.44,51.87,51.87,0,0,1-11.42-.7,17.08,17.08,0,0,1-6.86-2.59,5.9,5.9,0,0,1-1.36-1.38,2,2,0,0,1-.32-.59C124.8,347.39,94.88,235.92,91.21,222.23Z"/></g></g></svg>